<?xml version="1.0" standalone="no"?>
<!DOCTYPE svg PUBLIC "-//W3C//DTD SVG 20010904//EN"
 "http://www.w3.org/TR/2001/REC-SVG-20010904/DTD/svg10.dtd">
<svg version="1.0" xmlns="http://www.w3.org/2000/svg"
 width="337.000000pt" height="337.000000pt" viewBox="0 0 337.000000 337.000000"
 preserveAspectRatio="xMidYMid meet">
<metadata>
Created by potrace 1.14, written by Peter Selinger 2001-2017
</metadata>
<g transform="translate(0.000000,337.000000) scale(0.100000,-0.100000)"
fill="#000000" stroke="none">
<path d="M1037 3360 c-90 -23 -211 -106 -348 -241 -264 -259 -438 -579 -513
-941 -24 -114 -31 -199 -31 -358 0 -162 8 -252 31 -355 8 -38 17 -81 20 -95
13 -64 80 -245 126 -340 146 -302 361 -547 648 -736 173 -115 459 -232 630
-258 19 -3 46 -8 59 -10 101 -21 396 -29 511 -14 356 47 683 184 864 362 194
193 238 407 110 539 -88 91 -201 107 -420 61 -216 -45 -403 -39 -609 21 -241
70 -463 223 -544 375 l-31 58 34 80 c192 457 720 695 1191 537 39 -13 72 -21
74 -19 2 2 12 36 21 76 35 143 14 307 -53 421 -95 161 -318 267 -467 222 -12
-4 -15 8 -16 63 -2 209 -146 369 -382 423 -51 12 -186 14 -242 4 -108 -18
-266 -92 -328 -152 -19 -19 -21 -17 -13 20 4 17 6 37 6 42 -9 90 -45 147 -121
191 -51 30 -141 40 -207 24z"/>
</g>
</svg>
